Format : AVI
Format/Info : Audio Video Interleave
File size : 1.15 GiB
Duration : 1h 44mn
Overall bit rate : 1 572 Kbps
Writing library : VirtualDub build 32839/release

Video
ID : 0
Format : MPEG-4 Visual
Format profile : Advanced Simple@L5
Format settings, BVOP : Yes
Format settings, QPel : No
Format settings, GMC : No warppoints
Format settings, Matrix : Custom
Codec ID : XVID
Codec ID/Hint : XviD
Duration : 1h 44mn
Bit rate : 1 369 Kbps
Width : 720 pixels
Height : 316 pixels
Display aspect ratio : 2.25:1
Frame rate : 29.970 fps
Color space : YUV
Chroma subsampling : 4:2:0
Bit depth : 8 bits
Scan type : Progressive
Bits/(Pixel*Frame) : 0.201
Stream size : 1.00 GiB (87%)
Writing library : XviD 1.2.1 (UTC 2008-12-04)

Audio
ID : 1
Format : AC-3
Format/Info : Audio Coding 3
Mode extension : CM (complete main)
Codec ID : 2000
Duration : 1h 44mn
Bit rate mode : Constant
Bit rate : 192 Kbps
Channel(s) : 2 channels
Channel positions : Front: L R
Sampling rate : 48.0 KHz
Bit depth : 16 bits
Stream size : 144 MiB (12%)
Alignment : Aligned on interleaves
Interleave, duration : 33 ms (1.00 video frame)
Interleave, preload duration : 512 ms



 
http://www.imdb.com/title/tt1648093/




89524873606771859129.png


Users: 5.9/10 (130 votes) 5 reviews | Critics: 10 reviews

A tyrant forces the greatest warrior in the land to battle his greatest friend by holding the woman they both love hostage.
Directors:
Felix Chong, Alan Mak
Writers:
Felix Chong, Alan Mak
Stars:
Yu Ai Lei, Hong Chen and Siu-hou Chin



95521316153253938506.png




vlcsnap2011051018h39m24.png

vlcsnap2011051018h40m08.png

vlcsnap2011051018h38m44.png

No idea on the source but thanks whoever you are ..

Hardcoded english subs over the top of Chinese/cantonese subs ............

Not sure how many will want but what the heck







Greetz to Imagine ,Flawl3ss,DiLLoN,BDK,NOiR,TOXiCiNK,THC,Ez,Rx,Boobyblue,TaRiQ786,LKRG